<svg xmlns="http://www.w3.org/2000/svg" xmlns:xlink="http://www.w3.org/1999/xlink" zoomAndPan="magnify" viewBox="175 5 210 330" width="420" height="660" preserveAspectRatio="xMidYMid meet" version="1.0"><defs><g/><clipPath id="93884d1d0c"><rect x="0" width="179" y="0" height="153"/></clipPath><clipPath id="27155bc91e"><rect x="0" width="198" y="0" height="152"/></clipPath><clipPath id="e3d0d18aa2"><rect x="0" width="16" y="0" height="85"/></clipPath><clipPath id="204166dc99"><rect x="0" width="89" y="0" height="173"/></clipPath></defs><g transform="matrix(1, 0, 0, 1, 190, 11)"><g clip-path="url(#93884d1d0c)"><g fill="#0b4f3b" fill-opacity="1"><g transform="translate(0.888277, 89.227983)"><g><path d="M 2.59375 -11.640625 C 2.238281 -11.460938 1.898438 -11.535156 1.578125 -11.859375 C 1.285156 -12.148438 1.300781 -12.476562 1.625 -12.84375 C 1.800781 -13.09375 2 -13.304688 2.21875 -13.484375 C 2.4375 -13.671875 2.65625 -13.832031 2.875 -13.96875 C 4.789062 -15.414062 6.832031 -16.328125 9 -16.703125 C 11.164062 -17.085938 13.398438 -17.132812 15.703125 -16.84375 C 17.441406 -16.59375 19.113281 -16.148438 20.71875 -15.515625 C 22.320312 -14.890625 23.921875 -14.234375 25.515625 -13.546875 C 26.378906 -13.179688 27.242188 -12.800781 28.109375 -12.40625 C 28.984375 -12.007812 29.851562 -11.613281 30.71875 -11.21875 C 31.4375 -10.882812 32.015625 -11.046875 32.453125 -11.703125 C 34.722656 -14.804688 36.921875 -17.960938 39.046875 -21.171875 C 41.179688 -24.390625 43.242188 -27.644531 45.234375 -30.9375 C 48.554688 -36.28125 52.03125 -41.492188 55.65625 -46.578125 C 59.289062 -51.671875 63.003906 -56.691406 66.796875 -61.640625 C 67.191406 -62.148438 67.601562 -62.648438 68.03125 -63.140625 C 68.46875 -63.628906 68.921875 -64.109375 69.390625 -64.578125 C 69.679688 -64.929688 70.023438 -65.179688 70.421875 -65.328125 C 70.816406 -65.472656 71.25 -65.4375 71.71875 -65.21875 C 72.226562 -65 72.5625 -64.703125 72.71875 -64.328125 C 72.882812 -63.953125 72.96875 -63.507812 72.96875 -63 C 73.007812 -61.914062 72.898438 -60.859375 72.640625 -59.828125 C 72.390625 -58.796875 72.117188 -57.757812 71.828125 -56.71875 C 70.640625 -52.882812 69.304688 -49.109375 67.828125 -45.390625 C 66.347656 -41.671875 64.882812 -37.953125 63.4375 -34.234375 C 61.695312 -29.753906 59.976562 -25.25 58.28125 -20.71875 C 56.59375 -16.1875 54.9375 -11.664062 53.3125 -7.15625 C 53.125 -6.644531 53.054688 -6.34375 53.109375 -6.25 C 53.171875 -6.164062 53.472656 -6.125 54.015625 -6.125 C 55.921875 -6.082031 57.796875 -6.257812 59.640625 -6.65625 C 61.484375 -7.0625 63.304688 -7.535156 65.109375 -8.078125 C 65.546875 -8.210938 65.972656 -8.332031 66.390625 -8.4375 C 66.804688 -8.550781 67.226562 -8.679688 67.65625 -8.828125 C 67.769531 -8.867188 67.878906 -8.894531 67.984375 -8.90625 C 68.085938 -8.925781 68.210938 -8.9375 68.359375 -8.9375 C 68.648438 -8.863281 68.832031 -8.71875 68.90625 -8.5 C 68.9375 -8.320312 68.890625 -8.210938 68.765625 -8.171875 C 68.640625 -8.140625 68.523438 -8.109375 68.421875 -8.078125 C 66.359375 -7.171875 64.253906 -6.445312 62.109375 -5.90625 C 59.960938 -5.363281 57.75 -5.054688 55.46875 -4.984375 C 55.289062 -4.941406 55.09375 -4.921875 54.875 -4.921875 C 54.65625 -4.921875 54.457031 -4.921875 54.28125 -4.921875 C 53.695312 -4.890625 53.269531 -4.847656 53 -4.796875 C 52.726562 -4.742188 52.53125 -4.597656 52.40625 -4.359375 C 52.28125 -4.128906 52.128906 -3.722656 51.953125 -3.140625 C 51.335938 -1.296875 50.722656 0.539062 50.109375 2.375 C 49.492188 4.21875 48.988281 6.097656 48.59375 8.015625 C 48.476562 8.554688 48.375 9.097656 48.28125 9.640625 C 48.195312 10.179688 48.175781 10.722656 48.21875 11.265625 C 48.25 11.804688 48.140625 12.148438 47.890625 12.296875 C 47.640625 12.441406 47.273438 12.390625 46.796875 12.140625 C 46.078125 11.703125 45.679688 11.03125 45.609375 10.125 C 45.578125 9.039062 45.675781 7.984375 45.90625 6.953125 C 46.144531 5.929688 46.410156 4.914062 46.703125 3.90625 C 47.097656 2.53125 47.5 1.164062 47.90625 -0.1875 C 48.320312 -1.539062 48.75 -2.882812 49.1875 -4.21875 C 49.257812 -4.476562 49.296875 -4.675781 49.296875 -4.8125 C 49.296875 -4.957031 49.113281 -5.050781 48.75 -5.09375 C 46.082031 -5.34375 43.484375 -5.851562 40.953125 -6.625 C 38.421875 -7.40625 35.894531 -8.210938 33.375 -9.046875 C 32.757812 -9.222656 32.269531 -9.078125 31.90625 -8.609375 C 30.351562 -6.554688 28.769531 -4.507812 27.15625 -2.46875 C 25.550781 -0.425781 23.8125 1.492188 21.9375 3.296875 C 21.144531 4.097656 20.3125 4.820312 19.4375 5.46875 C 18.570312 6.125 17.617188 6.703125 16.578125 7.203125 C 14.441406 8.210938 12.425781 8.375 10.53125 7.6875 C 8.632812 7 7.164062 5.609375 6.125 3.515625 C 5.582031 2.359375 5.226562 1.191406 5.0625 0.015625 C 4.90625 -1.148438 4.894531 -2.347656 5.03125 -3.578125 C 5.070312 -3.972656 5.21875 -4.40625 5.46875 -4.875 C 5.71875 -5.3125 6.097656 -5.4375 6.609375 -5.25 C 7.003906 -5.101562 7.164062 -4.796875 7.09375 -4.328125 C 6.945312 -3.066406 6.910156 -1.8125 6.984375 -0.5625 C 7.054688 0.675781 7.363281 1.875 7.90625 3.03125 C 8.5625 4.476562 9.203125 5.5 9.828125 6.09375 C 10.460938 6.6875 11.191406 6.957031 12.015625 6.90625 C 12.847656 6.851562 13.863281 6.609375 15.0625 6.171875 C 16.320312 5.703125 17.46875 5.050781 18.5 4.21875 C 19.53125 3.394531 20.515625 2.53125 21.453125 1.625 C 23.148438 -0.03125 24.75 -1.78125 26.25 -3.625 C 27.75 -5.46875 29.21875 -7.328125 30.65625 -9.203125 C 30.769531 -9.390625 30.867188 -9.550781 30.953125 -9.6875 C 31.046875 -9.832031 30.910156 -9.976562 30.546875 -10.125 C 28.785156 -10.8125 27.023438 -11.5625 25.265625 -12.375 C 23.515625 -13.1875 21.71875 -13.847656 19.875 -14.359375 C 19.082031 -14.578125 18.296875 -14.75 17.515625 -14.875 C 16.742188 -15 15.960938 -15.078125 15.171875 -15.109375 C 11.234375 -15.398438 7.601562 -14.570312 4.28125 -12.625 C 4.03125 -12.476562 3.757812 -12.320312 3.46875 -12.15625 C 3.175781 -12 2.882812 -11.828125 2.59375 -11.640625 Z M 34.1875 -11.703125 C 33.675781 -10.984375 33.457031 -10.539062 33.53125 -10.375 C 33.601562 -10.207031 34.035156 -9.984375 34.828125 -9.703125 C 37.140625 -8.898438 39.476562 -8.191406 41.84375 -7.578125 C 44.207031 -6.960938 46.617188 -6.566406 49.078125 -6.390625 C 49.367188 -6.359375 49.59375 -6.378906 49.75 -6.453125 C 49.914062 -6.523438 50.050781 -6.703125 50.15625 -6.984375 C 52.070312 -12.472656 54.128906 -17.898438 56.328125 -23.265625 C 58.535156 -28.628906 60.722656 -33.984375 62.890625 -39.328125 C 64.265625 -42.648438 65.59375 -45.953125 66.875 -49.234375 C 68.15625 -52.523438 69.320312 -55.867188 70.375 -59.265625 C 70.582031 -60.054688 70.769531 -60.847656 70.9375 -61.640625 C 71.101562 -62.441406 71.164062 -63.289062 71.125 -64.1875 C 70.550781 -63.789062 70.054688 -63.359375 69.640625 -62.890625 C 69.222656 -62.421875 68.816406 -61.953125 68.421875 -61.484375 C 65.128906 -57.367188 61.9375 -53.179688 58.84375 -48.921875 C 55.757812 -44.660156 52.796875 -40.289062 49.953125 -35.8125 C 47.378906 -31.757812 44.8125 -27.703125 42.25 -23.640625 C 39.6875 -19.578125 37 -15.597656 34.1875 -11.703125 Z M 34.1875 -11.703125 "/></g></g></g><g fill="#0b4f3b" fill-opacity="1"><g transform="translate(69.034238, 89.227983)"><g><path d="M 34.9375 -10.234375 C 35.226562 -10.234375 35.445312 -10.070312 35.59375 -9.75 C 35.664062 -9.53125 35.628906 -9.382812 35.484375 -9.3125 C 35.335938 -9.238281 35.210938 -9.164062 35.109375 -9.09375 C 34.347656 -8.664062 33.585938 -8.234375 32.828125 -7.796875 C 32.066406 -7.367188 31.289062 -6.9375 30.5 -6.5 C 28.976562 -5.59375 27.476562 -4.679688 26 -3.765625 C 24.519531 -2.847656 22.984375 -1.972656 21.390625 -1.140625 C 20.597656 -0.671875 19.769531 -0.25 18.90625 0.125 C 18.039062 0.507812 17.15625 0.863281 16.25 1.1875 C 15.207031 1.550781 14.296875 1.597656 13.515625 1.328125 C 12.734375 1.054688 12.125 0.578125 11.6875 -0.109375 C 11.257812 -0.796875 11.007812 -1.554688 10.9375 -2.390625 C 10.6875 -5.273438 11.320312 -8.035156 12.84375 -10.671875 C 13.238281 -11.359375 13.648438 -12.050781 14.078125 -12.75 C 14.515625 -13.457031 14.914062 -14.242188 15.28125 -15.109375 C 14.375 -14.828125 13.613281 -14.445312 13 -13.96875 C 12.382812 -13.5 11.769531 -13.015625 11.15625 -12.515625 C 9.71875 -11.285156 8.351562 -9.984375 7.0625 -8.609375 C 5.78125 -7.242188 4.472656 -5.890625 3.140625 -4.546875 C 2.992188 -4.398438 2.820312 -4.253906 2.625 -4.109375 C 2.425781 -3.972656 2.238281 -3.832031 2.0625 -3.6875 C 1.195312 -3.03125 0.398438 -3.117188 -0.328125 -3.953125 C -1.015625 -4.742188 -1.375 -5.628906 -1.40625 -6.609375 C -1.445312 -8.265625 -1.140625 -9.753906 -0.484375 -11.078125 C 0.160156 -12.398438 1.046875 -13.617188 2.171875 -14.734375 C 2.566406 -15.128906 3.035156 -15.164062 3.578125 -14.84375 C 4.878906 -14.007812 5.054688 -13 4.109375 -11.8125 C 3.640625 -11.125 3.179688 -10.410156 2.734375 -9.671875 C 2.285156 -8.929688 1.878906 -8.164062 1.515625 -7.375 C 1.367188 -7.082031 1.238281 -6.78125 1.125 -6.46875 C 1.019531 -6.164062 0.953125 -5.816406 0.921875 -5.421875 C 1.359375 -5.523438 1.710938 -5.691406 1.984375 -5.921875 C 2.253906 -6.160156 2.515625 -6.40625 2.765625 -6.65625 C 4.140625 -8.03125 5.519531 -9.40625 6.90625 -10.78125 C 8.300781 -12.15625 9.71875 -13.488281 11.15625 -14.78125 C 11.550781 -15.1875 11.96875 -15.554688 12.40625 -15.890625 C 12.84375 -16.234375 13.296875 -16.535156 13.765625 -16.796875 C 14.191406 -17.046875 14.617188 -17.210938 15.046875 -17.296875 C 15.484375 -17.390625 15.9375 -17.238281 16.40625 -16.84375 C 16.882812 -16.445312 17.226562 -15.992188 17.4375 -15.484375 C 17.65625 -14.984375 17.675781 -14.425781 17.5 -13.8125 C 17.207031 -12.832031 16.863281 -11.945312 16.46875 -11.15625 C 16.03125 -10.320312 15.59375 -9.484375 15.15625 -8.640625 C 14.726562 -7.796875 14.316406 -6.9375 13.921875 -6.0625 C 13.628906 -5.488281 13.375 -4.882812 13.15625 -4.25 C 12.945312 -3.613281 12.785156 -2.957031 12.671875 -2.28125 C 12.671875 -2.238281 12.671875 -2.179688 12.671875 -2.109375 C 12.671875 -2.035156 12.671875 -1.960938 12.671875 -1.890625 C 12.597656 -1.023438 12.6875 -0.46875 12.9375 -0.21875 C 13.195312 0.03125 13.78125 0.0859375 14.6875 -0.046875 C 15.507812 -0.191406 16.316406 -0.4375 17.109375 -0.78125 C 17.910156 -1.125 18.691406 -1.476562 19.453125 -1.84375 C 20.960938 -2.5625 22.429688 -3.34375 23.859375 -4.1875 C 25.285156 -5.039062 26.703125 -5.898438 28.109375 -6.765625 C 29.117188 -7.378906 30.148438 -7.957031 31.203125 -8.5 C 32.253906 -9.039062 33.300781 -9.566406 34.34375 -10.078125 C 34.414062 -10.109375 34.503906 -10.140625 34.609375 -10.171875 C 34.722656 -10.210938 34.832031 -10.234375 34.9375 -10.234375 Z M 34.9375 -10.234375 "/></g></g></g><g fill="#0b4f3b" fill-opacity="1"><g transform="translate(103.161372, 89.227983)"><g><path d="M 34.9375 -10.234375 C 35.226562 -10.234375 35.445312 -10.070312 35.59375 -9.75 C 35.664062 -9.53125 35.628906 -9.382812 35.484375 -9.3125 C 35.335938 -9.238281 35.210938 -9.164062 35.109375 -9.09375 C 34.347656 -8.664062 33.585938 -8.234375 32.828125 -7.796875 C 32.066406 -7.367188 31.289062 -6.9375 30.5 -6.5 C 28.976562 -5.59375 27.476562 -4.679688 26 -3.765625 C 24.519531 -2.847656 22.984375 -1.972656 21.390625 -1.140625 C 20.597656 -0.671875 19.769531 -0.25 18.90625 0.125 C 18.039062 0.507812 17.15625 0.863281 16.25 1.1875 C 15.207031 1.550781 14.296875 1.597656 13.515625 1.328125 C 12.734375 1.054688 12.125 0.578125 11.6875 -0.109375 C 11.257812 -0.796875 11.007812 -1.554688 10.9375 -2.390625 C 10.6875 -5.273438 11.320312 -8.035156 12.84375 -10.671875 C 13.238281 -11.359375 13.648438 -12.050781 14.078125 -12.75 C 14.515625 -13.457031 14.914062 -14.242188 15.28125 -15.109375 C 14.375 -14.828125 13.613281 -14.445312 13 -13.96875 C 12.382812 -13.5 11.769531 -13.015625 11.15625 -12.515625 C 9.71875 -11.285156 8.351562 -9.984375 7.0625 -8.609375 C 5.78125 -7.242188 4.472656 -5.890625 3.140625 -4.546875 C 2.992188 -4.398438 2.820312 -4.253906 2.625 -4.109375 C 2.425781 -3.972656 2.238281 -3.832031 2.0625 -3.6875 C 1.195312 -3.03125 0.398438 -3.117188 -0.328125 -3.953125 C -1.015625 -4.742188 -1.375 -5.628906 -1.40625 -6.609375 C -1.445312 -8.265625 -1.140625 -9.753906 -0.484375 -11.078125 C 0.160156 -12.398438 1.046875 -13.617188 2.171875 -14.734375 C 2.566406 -15.128906 3.035156 -15.164062 3.578125 -14.84375 C 4.878906 -14.007812 5.054688 -13 4.109375 -11.8125 C 3.640625 -11.125 3.179688 -10.410156 2.734375 -9.671875 C 2.285156 -8.929688 1.878906 -8.164062 1.515625 -7.375 C 1.367188 -7.082031 1.238281 -6.78125 1.125 -6.46875 C 1.019531 -6.164062 0.953125 -5.816406 0.921875 -5.421875 C 1.359375 -5.523438 1.710938 -5.691406 1.984375 -5.921875 C 2.253906 -6.160156 2.515625 -6.40625 2.765625 -6.65625 C 4.140625 -8.03125 5.519531 -9.40625 6.90625 -10.78125 C 8.300781 -12.15625 9.71875 -13.488281 11.15625 -14.78125 C 11.550781 -15.1875 11.96875 -15.554688 12.40625 -15.890625 C 12.84375 -16.234375 13.296875 -16.535156 13.765625 -16.796875 C 14.191406 -17.046875 14.617188 -17.210938 15.046875 -17.296875 C 15.484375 -17.390625 15.9375 -17.238281 16.40625 -16.84375 C 16.882812 -16.445312 17.226562 -15.992188 17.4375 -15.484375 C 17.65625 -14.984375 17.675781 -14.425781 17.5 -13.8125 C 17.207031 -12.832031 16.863281 -11.945312 16.46875 -11.15625 C 16.03125 -10.320312 15.59375 -9.484375 15.15625 -8.640625 C 14.726562 -7.796875 14.316406 -6.9375 13.921875 -6.0625 C 13.628906 -5.488281 13.375 -4.882812 13.15625 -4.25 C 12.945312 -3.613281 12.785156 -2.957031 12.671875 -2.28125 C 12.671875 -2.238281 12.671875 -2.179688 12.671875 -2.109375 C 12.671875 -2.035156 12.671875 -1.960938 12.671875 -1.890625 C 12.597656 -1.023438 12.6875 -0.46875 12.9375 -0.21875 C 13.195312 0.03125 13.78125 0.0859375 14.6875 -0.046875 C 15.507812 -0.191406 16.316406 -0.4375 17.109375 -0.78125 C 17.910156 -1.125 18.691406 -1.476562 19.453125 -1.84375 C 20.960938 -2.5625 22.429688 -3.34375 23.859375 -4.1875 C 25.285156 -5.039062 26.703125 -5.898438 28.109375 -6.765625 C 29.117188 -7.378906 30.148438 -7.957031 31.203125 -8.5 C 32.253906 -9.039062 33.300781 -9.566406 34.34375 -10.078125 C 34.414062 -10.109375 34.503906 -10.140625 34.609375 -10.171875 C 34.722656 -10.210938 34.832031 -10.234375 34.9375 -10.234375 Z M 34.9375 -10.234375 "/></g></g></g><g fill="#0b4f3b" fill-opacity="1"><g transform="translate(137.288505, 89.227983)"><g><path d="M 3.796875 -1.734375 C 3.753906 -1.910156 3.734375 -2.113281 3.734375 -2.34375 C 3.734375 -2.582031 3.679688 -2.832031 3.578125 -3.09375 C 3.253906 -2.757812 2.9375 -2.445312 2.625 -2.15625 C 2.320312 -1.875 2.023438 -1.585938 1.734375 -1.296875 C 1.335938 -0.867188 0.867188 -0.507812 0.328125 -0.21875 C -0.359375 0.101562 -1.050781 0.0859375 -1.75 -0.265625 C -2.457031 -0.628906 -2.8125 -1.191406 -2.8125 -1.953125 C -2.851562 -4.191406 -2.421875 -6.210938 -1.515625 -8.015625 C -0.609375 -9.816406 0.816406 -11.332031 2.765625 -12.5625 C 3.597656 -13.070312 4.421875 -13.296875 5.234375 -13.234375 C 6.046875 -13.179688 6.847656 -12.921875 7.640625 -12.453125 C 7.859375 -12.316406 8.066406 -12.191406 8.265625 -12.078125 C 8.460938 -11.972656 8.707031 -11.972656 9 -12.078125 C 9.175781 -12.148438 9.34375 -12.140625 9.5 -12.046875 C 9.664062 -11.960938 9.820312 -11.882812 9.96875 -11.8125 C 10.539062 -11.5625 10.863281 -11.300781 10.9375 -11.03125 C 11.007812 -10.757812 10.90625 -10.332031 10.625 -9.75 C 10.21875 -9.0625 9.796875 -8.363281 9.359375 -7.65625 C 8.929688 -6.957031 8.570312 -6.226562 8.28125 -5.46875 C 7.53125 -3.59375 7.171875 -1.71875 7.203125 0.15625 C 7.203125 1.03125 7.363281 1.84375 7.6875 2.59375 C 7.976562 3.28125 8.539062 3.660156 9.375 3.734375 C 10.207031 3.734375 10.984375 3.609375 11.703125 3.359375 C 12.421875 3.109375 13.125 2.800781 13.8125 2.4375 C 14.71875 2 15.890625 1.351562 17.328125 0.5 C 18.773438 -0.34375 20.347656 -1.273438 22.046875 -2.296875 C 23.742188 -3.328125 25.445312 -4.335938 27.15625 -5.328125 C 28.875 -6.328125 30.472656 -7.210938 31.953125 -7.984375 C 33.441406 -8.765625 34.707031 -9.316406 35.75 -9.640625 C 36.800781 -9.960938 37.46875 -9.945312 37.75 -9.59375 C 37.75 -9.59375 37.785156 -9.460938 37.859375 -9.203125 C 36.523438 -9.066406 35.019531 -8.59375 33.34375 -7.78125 C 31.664062 -6.96875 29.914062 -5.984375 28.09375 -4.828125 C 26.269531 -3.671875 24.453125 -2.476562 22.640625 -1.25 C 20.835938 -0.0195312 19.128906 1.109375 17.515625 2.140625 C 15.910156 3.171875 14.476562 3.957031 13.21875 4.5 C 11.664062 5.144531 10.078125 5.25 8.453125 4.8125 C 6.828125 4.382812 5.546875 3.304688 4.609375 1.578125 C 4.347656 1.066406 4.164062 0.535156 4.0625 -0.015625 C 3.957031 -0.578125 3.867188 -1.148438 3.796875 -1.734375 Z M 0.765625 -2.390625 C 2.023438 -3.472656 3.101562 -4.691406 4 -6.046875 C 4.90625 -7.398438 5.789062 -8.757812 6.65625 -10.125 C 6.800781 -10.34375 6.835938 -10.53125 6.765625 -10.6875 C 6.691406 -10.851562 6.601562 -11.007812 6.5 -11.15625 C 6.394531 -11.34375 6.257812 -11.4375 6.09375 -11.4375 C 5.925781 -11.4375 5.773438 -11.398438 5.640625 -11.328125 C 5.421875 -11.179688 5.191406 -11.050781 4.953125 -10.9375 C 4.722656 -10.832031 4.515625 -10.691406 4.328125 -10.515625 C 3.316406 -9.640625 2.453125 -8.675781 1.734375 -7.625 C 1.015625 -6.582031 0.398438 -5.429688 -0.109375 -4.171875 C -0.253906 -3.804688 -0.378906 -3.398438 -0.484375 -2.953125 C -0.597656 -2.503906 -0.65625 -1.972656 -0.65625 -1.359375 C -0.363281 -1.566406 -0.101562 -1.753906 0.125 -1.921875 C 0.363281 -2.085938 0.578125 -2.242188 0.765625 -2.390625 Z M 0.765625 -2.390625 "/></g></g></g></g></g><g transform="matrix(1, 0, 0, 1, 180, 178)"><g clip-path="url(#27155bc91e)"><g fill="#0b4f3b" fill-opacity="1"><g transform="translate(1.216363, 88.749191)"><g><path d="M 6.390625 3.03125 C 9.816406 2.382812 13.300781 2.367188 16.84375 2.984375 C 17.601562 3.085938 18.253906 2.890625 18.796875 2.390625 C 20.859375 0.578125 22.769531 -1.363281 24.53125 -3.4375 C 26.300781 -5.519531 28.035156 -7.609375 29.734375 -9.703125 C 32.703125 -13.273438 35.429688 -17 37.921875 -20.875 C 40.410156 -24.757812 42.8125 -28.707031 45.125 -32.71875 C 47.539062 -36.945312 50.101562 -41.054688 52.8125 -45.046875 C 55.519531 -49.035156 58.5 -52.835938 61.75 -56.453125 C 62.1875 -56.921875 62.640625 -57.378906 63.109375 -57.828125 C 63.578125 -58.273438 64.046875 -58.695312 64.515625 -59.09375 C 64.984375 -59.5 65.460938 -59.90625 65.953125 -60.3125 C 66.441406 -60.726562 66.898438 -61.171875 67.328125 -61.640625 C 67.515625 -61.859375 67.710938 -62.046875 67.921875 -62.203125 C 68.140625 -62.367188 68.414062 -62.453125 68.75 -62.453125 C 69 -62.453125 69.25 -62.4375 69.5 -62.40625 C 69.75 -62.375 69.945312 -62.25 70.09375 -62.03125 C 70.28125 -61.769531 70.269531 -61.566406 70.0625 -61.421875 C 69.863281 -61.285156 69.695312 -61.144531 69.5625 -61 C 68.21875 -59.375 67.019531 -57.65625 65.96875 -55.84375 C 64.925781 -54.039062 63.921875 -52.203125 62.953125 -50.328125 C 62.804688 -50.035156 62.640625 -49.734375 62.453125 -49.421875 C 62.273438 -49.117188 62.097656 -48.804688 61.921875 -48.484375 C 61.773438 -48.234375 61.519531 -48.160156 61.15625 -48.265625 C 60.976562 -48.335938 60.894531 -48.4375 60.90625 -48.5625 C 60.925781 -48.6875 60.957031 -48.804688 61 -48.921875 C 61.21875 -49.859375 61.53125 -50.757812 61.9375 -51.625 C 62.351562 -52.488281 62.765625 -53.335938 63.171875 -54.171875 C 63.234375 -54.347656 63.316406 -54.507812 63.421875 -54.65625 C 63.535156 -54.800781 63.578125 -55 63.546875 -55.25 C 62.710938 -54.238281 61.890625 -53.242188 61.078125 -52.265625 C 60.265625 -51.296875 59.476562 -50.320312 58.71875 -49.34375 C 56.15625 -46.0625 53.769531 -42.660156 51.5625 -39.140625 C 49.363281 -35.617188 47.269531 -32.035156 45.28125 -28.390625 C 42.90625 -24.015625 40.332031 -19.769531 37.5625 -15.65625 C 34.800781 -11.539062 31.816406 -7.585938 28.609375 -3.796875 C 27.484375 -2.453125 26.285156 -1.148438 25.015625 0.109375 C 23.753906 1.367188 22.382812 2.578125 20.90625 3.734375 C 21.519531 3.878906 22.078125 4.023438 22.578125 4.171875 C 23.085938 4.316406 23.597656 4.460938 24.109375 4.609375 C 25.910156 5.078125 27.710938 5.488281 29.515625 5.84375 C 31.328125 6.207031 33.171875 6.476562 35.046875 6.65625 C 37.460938 6.914062 39.84375 6.863281 42.1875 6.5 C 44.539062 6.132812 46.875 5.664062 49.1875 5.09375 C 51.96875 4.4375 54.601562 3.484375 57.09375 2.234375 C 59.582031 0.992188 61.929688 -0.507812 64.140625 -2.28125 C 65.253906 -3.175781 66.367188 -4.078125 67.484375 -4.984375 C 68.609375 -5.890625 69.675781 -6.847656 70.6875 -7.859375 C 71.019531 -8.179688 71.363281 -8.46875 71.71875 -8.71875 C 72.113281 -9.039062 72.441406 -9.023438 72.703125 -8.671875 C 72.847656 -8.523438 72.851562 -8.394531 72.71875 -8.28125 C 72.59375 -8.175781 72.492188 -8.085938 72.421875 -8.015625 C 71.554688 -7.222656 70.734375 -6.359375 69.953125 -5.421875 C 69.179688 -4.484375 68.378906 -3.597656 67.546875 -2.765625 C 62.742188 2.035156 57.003906 5.175781 50.328125 6.65625 C 48.878906 6.988281 47.40625 7.289062 45.90625 7.5625 C 44.40625 7.832031 42.914062 8.019531 41.4375 8.125 C 38.582031 8.375 35.765625 8.265625 32.984375 7.796875 C 30.203125 7.328125 27.421875 6.75 24.640625 6.0625 C 23.960938 5.882812 23.269531 5.695312 22.5625 5.5 C 21.851562 5.300781 21.140625 5.109375 20.421875 4.921875 C 19.921875 4.785156 19.453125 4.878906 19.015625 5.203125 C 17.679688 6.210938 16.28125 7.140625 14.8125 7.984375 C 13.351562 8.835938 11.773438 9.460938 10.078125 9.859375 C 9.171875 10.109375 8.25 10.25 7.3125 10.28125 C 6.375 10.320312 5.4375 10.21875 4.5 9.96875 C 4.132812 9.863281 3.757812 9.726562 3.375 9.5625 C 3 9.394531 2.648438 9.1875 2.328125 8.9375 C 0.847656 7.820312 0.738281 6.59375 2 5.25 C 2.613281 4.632812 3.289062 4.144531 4.03125 3.78125 C 4.769531 3.425781 5.554688 3.175781 6.390625 3.03125 Z M 15.875 4.015625 C 14.539062 3.828125 13.1875 3.757812 11.8125 3.8125 C 10.4375 3.875 9.0625 4.007812 7.6875 4.21875 C 7.039062 4.363281 6.425781 4.570312 5.84375 4.84375 C 5.269531 5.113281 4.75 5.503906 4.28125 6.015625 C 3.8125 6.515625 3.628906 7.007812 3.734375 7.5 C 3.847656 7.988281 4.191406 8.378906 4.765625 8.671875 C 5.234375 8.890625 5.691406 8.976562 6.140625 8.9375 C 6.597656 8.90625 7.0625 8.851562 7.53125 8.78125 C 9.1875 8.382812 10.738281 7.78125 12.1875 6.96875 C 13.632812 6.15625 15.078125 5.222656 16.515625 4.171875 C 16.378906 4.128906 16.253906 4.097656 16.140625 4.078125 C 16.035156 4.066406 15.945312 4.046875 15.875 4.015625 Z M 15.875 4.015625 "/></g></g></g><g fill="#0b4f3b" fill-opacity="1"><g transform="translate(71.258264, 88.749191)"><g><path d="M 18.640625 -17.0625 C 19.035156 -16.8125 19.035156 -16.503906 18.640625 -16.140625 C 17.148438 -14.804688 15.8125 -13.34375 14.625 -11.75 C 13.4375 -10.164062 12.335938 -8.503906 11.328125 -6.765625 C 10.171875 -4.785156 9.15625 -2.726562 8.28125 -0.59375 C 7.414062 1.53125 6.75 3.75 6.28125 6.0625 C 6.03125 7.363281 5.910156 8.65625 5.921875 9.9375 C 5.941406 11.21875 6.132812 12.492188 6.5 13.765625 C 6.644531 14.191406 6.796875 14.601562 6.953125 15 C 7.117188 15.394531 7.382812 15.738281 7.75 16.03125 C 8.070312 16.25 8.144531 16.46875 7.96875 16.6875 C 7.894531 16.832031 7.789062 16.867188 7.65625 16.796875 C 7.53125 16.722656 7.414062 16.664062 7.3125 16.625 C 6.8125 16.445312 6.390625 16.160156 6.046875 15.765625 C 5.703125 15.367188 5.382812 14.9375 5.09375 14.46875 C 4.507812 13.382812 4.128906 12.265625 3.953125 11.109375 C 3.773438 9.953125 3.722656 8.757812 3.796875 7.53125 C 3.867188 5.832031 4.109375 4.171875 4.515625 2.546875 C 4.929688 0.921875 5.445312 -0.664062 6.0625 -2.21875 C 6.132812 -2.394531 6.195312 -2.554688 6.25 -2.703125 C 6.3125 -2.847656 6.359375 -2.992188 6.390625 -3.140625 C 6.390625 -3.179688 6.375 -3.328125 6.34375 -3.578125 C 5.90625 -3.109375 5.488281 -2.644531 5.09375 -2.1875 C 4.695312 -1.738281 4.28125 -1.316406 3.84375 -0.921875 C 3.15625 -0.335938 2.378906 -0.0664062 1.515625 -0.109375 C -0.210938 -0.179688 -1.242188 -1.046875 -1.578125 -2.703125 C -1.640625 -3.140625 -1.679688 -3.570312 -1.703125 -4 C -1.722656 -4.4375 -1.695312 -4.875 -1.625 -5.3125 C -1.375 -7.039062 -0.929688 -8.671875 -0.296875 -10.203125 C 0.335938 -11.742188 1.25 -13.164062 2.4375 -14.46875 C 3.050781 -15.113281 3.8125 -15.382812 4.71875 -15.28125 C 5.21875 -15.207031 5.53125 -15.0625 5.65625 -14.84375 C 5.78125 -14.625 5.703125 -14.28125 5.421875 -13.8125 C 5.085938 -13.238281 4.738281 -12.648438 4.375 -12.046875 C 4.019531 -11.453125 3.679688 -10.847656 3.359375 -10.234375 C 2.304688 -8.210938 1.601562 -6.117188 1.25 -3.953125 C 1.132812 -3.378906 1.113281 -2.75 1.1875 -2.0625 C 1.257812 -1.625 1.359375 -1.378906 1.484375 -1.328125 C 1.609375 -1.273438 1.851562 -1.375 2.21875 -1.625 C 2.832031 -2.132812 3.382812 -2.6875 3.875 -3.28125 C 4.363281 -3.875 4.859375 -4.457031 5.359375 -5.03125 C 6.085938 -5.863281 6.75 -6.738281 7.34375 -7.65625 C 7.9375 -8.582031 8.578125 -9.460938 9.265625 -10.296875 C 10.304688 -11.523438 11.40625 -12.695312 12.5625 -13.8125 C 13.71875 -14.9375 14.929688 -16.003906 16.203125 -17.015625 C 16.628906 -17.335938 17.023438 -17.5 17.390625 -17.5 C 17.753906 -17.5 18.171875 -17.351562 18.640625 -17.0625 Z M 18.640625 -17.0625 "/></g></g></g><g fill="#0b4f3b" fill-opacity="1"><g transform="translate(92.655449, 88.749191)"><g><path d="M 44.90625 -9.046875 C 44.507812 -8.609375 44.039062 -8.175781 43.5 -7.75 C 42.09375 -6.625 40.691406 -5.492188 39.296875 -4.359375 C 37.910156 -3.222656 36.421875 -2.203125 34.828125 -1.296875 C 33.816406 -0.722656 32.769531 -0.191406 31.6875 0.296875 C 30.601562 0.785156 29.539062 1.28125 28.5 1.78125 C 26.976562 2.46875 25.429688 3.097656 23.859375 3.671875 C 22.285156 4.253906 20.6875 4.742188 19.0625 5.140625 C 16.863281 5.648438 14.632812 5.945312 12.375 6.03125 C 10.125 6.125 7.859375 5.992188 5.578125 5.640625 C 4.347656 5.453125 3.179688 5.097656 2.078125 4.578125 C 0.984375 4.054688 -0.0859375 3.46875 -1.140625 2.8125 C -1.285156 2.738281 -1.375 2.6875 -1.40625 2.65625 C -1.800781 2.40625 -2.109375 2.296875 -2.328125 2.328125 C -2.546875 2.367188 -2.742188 2.585938 -2.921875 2.984375 C -3.316406 3.703125 -3.710938 4.429688 -4.109375 5.171875 C -4.515625 5.910156 -4.914062 6.644531 -5.3125 7.375 C -6.5 9.71875 -7.785156 12 -9.171875 14.21875 C -10.566406 16.4375 -12.0625 18.578125 -13.65625 20.640625 C -14.226562 21.359375 -14.835938 22.0625 -15.484375 22.75 C -16.140625 23.4375 -16.882812 24.035156 -17.71875 24.546875 C -18.289062 24.867188 -18.894531 25.09375 -19.53125 25.21875 C -20.164062 25.34375 -20.785156 25.40625 -21.390625 25.40625 C -21.609375 25.40625 -21.773438 25.390625 -21.890625 25.359375 C -22.035156 25.285156 -22.207031 25.203125 -22.40625 25.109375 C -22.601562 25.015625 -22.703125 24.859375 -22.703125 24.640625 C -22.703125 24.390625 -22.601562 24.273438 -22.40625 24.296875 C -22.207031 24.316406 -22.035156 24.304688 -21.890625 24.265625 C -21.273438 24.085938 -20.710938 23.816406 -20.203125 23.453125 C -19.703125 23.097656 -19.234375 22.703125 -18.796875 22.265625 C -17.753906 21.253906 -16.789062 20.171875 -15.90625 19.015625 C -15.019531 17.859375 -14.175781 16.6875 -13.375 15.5 C -12.113281 13.582031 -10.921875 11.628906 -9.796875 9.640625 C -8.679688 7.648438 -7.601562 5.644531 -6.5625 3.625 C -6.488281 3.550781 -6.429688 3.453125 -6.390625 3.328125 C -6.359375 3.203125 -6.378906 3.066406 -6.453125 2.921875 C -6.703125 2.890625 -6.976562 2.851562 -7.28125 2.8125 C -7.59375 2.78125 -7.894531 2.742188 -8.1875 2.703125 C -8.539062 2.628906 -8.90625 2.539062 -9.28125 2.4375 C -9.664062 2.332031 -10.039062 2.171875 -10.40625 1.953125 C -11.050781 1.554688 -11.375 1.019531 -11.375 0.34375 C -11.375 -0.320312 -11.03125 -0.851562 -10.34375 -1.25 C -9.945312 -1.5 -9.515625 -1.640625 -9.046875 -1.671875 C -8.578125 -1.710938 -8.109375 -1.695312 -7.640625 -1.625 C -7.242188 -1.59375 -6.84375 -1.519531 -6.4375 -1.40625 C -6.039062 -1.300781 -5.664062 -1.175781 -5.3125 -1.03125 C -4.84375 -0.851562 -4.550781 -0.78125 -4.4375 -0.8125 C -4.332031 -0.84375 -4.15625 -1.097656 -3.90625 -1.578125 C -3.6875 -2.078125 -3.457031 -2.5625 -3.21875 -3.03125 C -2.988281 -3.5 -2.765625 -3.96875 -2.546875 -4.4375 C -1.535156 -6.601562 -0.523438 -8.757812 0.484375 -10.90625 C 1.492188 -13.0625 2.488281 -15.238281 3.46875 -17.4375 C 4.507812 -19.789062 5.554688 -22.125 6.609375 -24.4375 C 7.660156 -26.75 8.742188 -29.039062 9.859375 -31.3125 C 11.484375 -34.664062 13.242188 -37.941406 15.140625 -41.140625 C 17.035156 -44.335938 19.191406 -47.378906 21.609375 -50.265625 C 22.335938 -51.140625 23.113281 -51.972656 23.9375 -52.765625 C 24.769531 -53.554688 25.691406 -54.242188 26.703125 -54.828125 C 27.023438 -55.003906 27.359375 -55.144531 27.703125 -55.25 C 28.046875 -55.363281 28.398438 -55.382812 28.765625 -55.3125 C 29.015625 -55.269531 29.226562 -55.203125 29.40625 -55.109375 C 29.59375 -55.023438 29.757812 -54.859375 29.90625 -54.609375 C 28.457031 -54.140625 27.253906 -53.367188 26.296875 -52.296875 C 25.335938 -51.234375 24.425781 -50.125 23.5625 -48.96875 C 21.757812 -46.625 20.085938 -44.1875 18.546875 -41.65625 C 17.015625 -39.125 15.5625 -36.523438 14.1875 -33.859375 C 12.632812 -30.828125 11.15625 -27.753906 9.75 -24.640625 C 8.34375 -21.535156 6.953125 -18.429688 5.578125 -15.328125 C 4.492188 -12.910156 3.390625 -10.5 2.265625 -8.09375 C 1.148438 -5.695312 0.0351562 -3.285156 -1.078125 -0.859375 C -1.191406 -0.679688 -1.289062 -0.5 -1.375 -0.3125 C -1.46875 -0.132812 -1.515625 0.09375 -1.515625 0.375 C -0.796875 0.195312 -0.101562 -0.0351562 0.5625 -0.328125 C 1.238281 -0.617188 1.878906 -0.90625 2.484375 -1.1875 C 5.597656 -2.707031 8.546875 -4.453125 11.328125 -6.421875 C 14.109375 -8.390625 16.78125 -10.492188 19.34375 -12.734375 C 21.070312 -14.242188 22.757812 -15.820312 24.40625 -17.46875 C 26.050781 -19.113281 27.722656 -20.710938 29.421875 -22.265625 C 29.960938 -22.804688 30.46875 -23.238281 30.9375 -23.5625 C 31.65625 -24.03125 32.410156 -24.03125 33.203125 -23.5625 C 33.640625 -23.34375 33.660156 -23.070312 33.265625 -22.75 C 31.640625 -21.488281 30.113281 -20.097656 28.6875 -18.578125 C 27.257812 -17.066406 25.769531 -15.625 24.21875 -14.25 C 22.445312 -12.65625 20.640625 -11.097656 18.796875 -9.578125 C 16.953125 -8.066406 15.039062 -6.625 13.0625 -5.25 C 11.71875 -4.351562 10.34375 -3.460938 8.9375 -2.578125 C 7.53125 -1.691406 6.085938 -0.867188 4.609375 -0.109375 C 3.523438 0.398438 2.476562 0.832031 1.46875 1.1875 C 1.207031 1.257812 0.957031 1.347656 0.71875 1.453125 C 0.488281 1.566406 0.234375 1.675781 -0.046875 1.78125 C 0.0859375 2.039062 0.253906 2.222656 0.453125 2.328125 C 0.660156 2.429688 0.851562 2.539062 1.03125 2.65625 C 1.96875 3.226562 2.921875 3.664062 3.890625 3.96875 C 4.867188 4.28125 5.898438 4.507812 6.984375 4.65625 C 8.648438 4.832031 10.300781 4.859375 11.9375 4.734375 C 13.582031 4.609375 15.21875 4.382812 16.84375 4.0625 C 19.40625 3.550781 21.890625 2.851562 24.296875 1.96875 C 26.703125 1.09375 29.054688 0.078125 31.359375 -1.078125 C 32.660156 -1.734375 33.890625 -2.484375 35.046875 -3.328125 C 36.203125 -4.179688 37.320312 -5.054688 38.40625 -5.953125 C 39.195312 -6.640625 40 -7.300781 40.8125 -7.9375 C 41.625 -8.570312 42.484375 -9.160156 43.390625 -9.703125 C 43.566406 -9.804688 43.753906 -9.894531 43.953125 -9.96875 C 44.160156 -10.039062 44.390625 -10.019531 44.640625 -9.90625 C 45.210938 -9.726562 45.300781 -9.441406 44.90625 -9.046875 Z M -5.09375 0.65625 C -5.050781 0.46875 -5.101562 0.335938 -5.25 0.265625 C -5.394531 0.191406 -5.523438 0.117188 -5.640625 0.046875 C -5.890625 -0.128906 -6.15625 -0.257812 -6.4375 -0.34375 C -6.726562 -0.4375 -7.019531 -0.519531 -7.3125 -0.59375 C -7.78125 -0.707031 -8.222656 -0.671875 -8.640625 -0.484375 C -9.054688 -0.304688 -9.335938 -0.0351562 -9.484375 0.328125 C -9.734375 0.941406 -9.535156 1.335938 -8.890625 1.515625 C -8.703125 1.554688 -8.523438 1.578125 -8.359375 1.578125 C -8.203125 1.578125 -8.050781 1.578125 -7.90625 1.578125 C -7.582031 1.609375 -7.25 1.613281 -6.90625 1.59375 C -6.5625 1.582031 -6.226562 1.554688 -5.90625 1.515625 C -5.46875 1.410156 -5.195312 1.125 -5.09375 0.65625 Z M -5.09375 0.65625 "/></g></g></g><g fill="#0b4f3b" fill-opacity="1"><g transform="translate(135.991507, 88.749191)"><g><path d="M 3.796875 -1.734375 C 3.753906 -1.910156 3.734375 -2.113281 3.734375 -2.34375 C 3.734375 -2.582031 3.679688 -2.832031 3.578125 -3.09375 C 3.253906 -2.757812 2.9375 -2.445312 2.625 -2.15625 C 2.320312 -1.875 2.023438 -1.585938 1.734375 -1.296875 C 1.335938 -0.867188 0.867188 -0.507812 0.328125 -0.21875 C -0.359375 0.101562 -1.050781 0.0859375 -1.75 -0.265625 C -2.457031 -0.628906 -2.8125 -1.191406 -2.8125 -1.953125 C -2.851562 -4.191406 -2.421875 -6.210938 -1.515625 -8.015625 C -0.609375 -9.816406 0.816406 -11.332031 2.765625 -12.5625 C 3.597656 -13.070312 4.421875 -13.296875 5.234375 -13.234375 C 6.046875 -13.179688 6.847656 -12.921875 7.640625 -12.453125 C 7.859375 -12.316406 8.066406 -12.191406 8.265625 -12.078125 C 8.460938 -11.972656 8.707031 -11.972656 9 -12.078125 C 9.175781 -12.148438 9.34375 -12.140625 9.5 -12.046875 C 9.664062 -11.960938 9.820312 -11.882812 9.96875 -11.8125 C 10.539062 -11.5625 10.863281 -11.300781 10.9375 -11.03125 C 11.007812 -10.757812 10.90625 -10.332031 10.625 -9.75 C 10.21875 -9.0625 9.796875 -8.363281 9.359375 -7.65625 C 8.929688 -6.957031 8.570312 -6.226562 8.28125 -5.46875 C 7.53125 -3.59375 7.171875 -1.71875 7.203125 0.15625 C 7.203125 1.03125 7.363281 1.84375 7.6875 2.59375 C 7.976562 3.28125 8.539062 3.660156 9.375 3.734375 C 10.207031 3.734375 10.984375 3.609375 11.703125 3.359375 C 12.421875 3.109375 13.125 2.800781 13.8125 2.4375 C 14.71875 2 15.890625 1.351562 17.328125 0.5 C 18.773438 -0.34375 20.347656 -1.273438 22.046875 -2.296875 C 23.742188 -3.328125 25.445312 -4.335938 27.15625 -5.328125 C 28.875 -6.328125 30.472656 -7.210938 31.953125 -7.984375 C 33.441406 -8.765625 34.707031 -9.316406 35.75 -9.640625 C 36.800781 -9.960938 37.46875 -9.945312 37.75 -9.59375 C 37.75 -9.59375 37.785156 -9.460938 37.859375 -9.203125 C 36.523438 -9.066406 35.019531 -8.59375 33.34375 -7.78125 C 31.664062 -6.96875 29.914062 -5.984375 28.09375 -4.828125 C 26.269531 -3.671875 24.453125 -2.476562 22.640625 -1.25 C 20.835938 -0.0195312 19.128906 1.109375 17.515625 2.140625 C 15.910156 3.171875 14.476562 3.957031 13.21875 4.5 C 11.664062 5.144531 10.078125 5.25 8.453125 4.8125 C 6.828125 4.382812 5.546875 3.304688 4.609375 1.578125 C 4.347656 1.066406 4.164062 0.535156 4.0625 -0.015625 C 3.957031 -0.578125 3.867188 -1.148438 3.796875 -1.734375 Z M 0.765625 -2.390625 C 2.023438 -3.472656 3.101562 -4.691406 4 -6.046875 C 4.90625 -7.398438 5.789062 -8.757812 6.65625 -10.125 C 6.800781 -10.34375 6.835938 -10.53125 6.765625 -10.6875 C 6.691406 -10.851562 6.601562 -11.007812 6.5 -11.15625 C 6.394531 -11.34375 6.257812 -11.4375 6.09375 -11.4375 C 5.925781 -11.4375 5.773438 -11.398438 5.640625 -11.328125 C 5.421875 -11.179688 5.191406 -11.050781 4.953125 -10.9375 C 4.722656 -10.832031 4.515625 -10.691406 4.328125 -10.515625 C 3.316406 -9.640625 2.453125 -8.675781 1.734375 -7.625 C 1.015625 -6.582031 0.398438 -5.429688 -0.109375 -4.171875 C -0.253906 -3.804688 -0.378906 -3.398438 -0.484375 -2.953125 C -0.597656 -2.503906 -0.65625 -1.972656 -0.65625 -1.359375 C -0.363281 -1.566406 -0.101562 -1.753906 0.125 -1.921875 C 0.363281 -2.085938 0.578125 -2.242188 0.765625 -2.390625 Z M 6.765625 -17.609375 C 6.410156 -17.640625 6.101562 -17.679688 5.84375 -17.734375 C 5.59375 -17.796875 5.429688 -17.929688 5.359375 -18.140625 C 5.285156 -18.328125 5.3125 -18.5 5.4375 -18.65625 C 5.570312 -18.820312 5.707031 -18.976562 5.84375 -19.125 C 6.425781 -19.738281 7.015625 -20.34375 7.609375 -20.9375 C 8.203125 -21.53125 8.84375 -22.082031 9.53125 -22.59375 C 9.851562 -22.84375 10.203125 -23.019531 10.578125 -23.125 C 10.960938 -23.238281 11.375 -23.222656 11.8125 -23.078125 C 12.570312 -22.828125 12.644531 -22.484375 12.03125 -22.046875 C 11.226562 -21.472656 10.472656 -20.84375 9.765625 -20.15625 C 9.066406 -19.46875 8.375 -18.765625 7.6875 -18.046875 C 7.332031 -17.679688 7.023438 -17.535156 6.765625 -17.609375 Z M 6.765625 -17.609375 "/></g></g></g><g fill="#0b4f3b" fill-opacity="1"><g transform="translate(172.556293, 88.749191)"><g><path d="M 6.390625 5.46875 C 6.710938 4.5625 7.238281 3.769531 7.96875 3.09375 C 8.507812 2.582031 8.820312 1.898438 8.90625 1.046875 C 9 0.203125 8.847656 -0.523438 8.453125 -1.140625 C 8.203125 -1.609375 7.820312 -1.785156 7.3125 -1.671875 C 6.625 -1.535156 5.953125 -1.375 5.296875 -1.1875 C 4.648438 -1.007812 4.019531 -0.8125 3.40625 -0.59375 C 2.757812 -0.375 2.109375 -0.210938 1.453125 -0.109375 C 0.804688 -0.00390625 0.140625 -0.0195312 -0.546875 -0.15625 C -0.617188 -0.195312 -0.742188 -0.21875 -0.921875 -0.21875 C -3.085938 -0.71875 -3.863281 -2.035156 -3.25 -4.171875 C -2.488281 -6.628906 -1.351562 -8.90625 0.15625 -11 C 0.664062 -11.6875 1.226562 -12.316406 1.84375 -12.890625 C 2.457031 -13.472656 3.125 -13.976562 3.84375 -14.40625 C 4.601562 -14.84375 5.394531 -15.140625 6.21875 -15.296875 C 7.050781 -15.460938 7.90625 -15.457031 8.78125 -15.28125 C 10.257812 -14.914062 11.207031 -14.28125 11.625 -13.375 C 12.039062 -12.476562 12.15625 -11.378906 11.96875 -10.078125 C 11.9375 -9.859375 11.863281 -9.65625 11.75 -9.46875 C 11.644531 -9.289062 11.445312 -9.164062 11.15625 -9.09375 C 10.757812 -9.03125 10.441406 -9.101562 10.203125 -9.3125 C 9.972656 -9.53125 9.875 -9.875 9.90625 -10.34375 C 9.976562 -10.78125 9.988281 -11.207031 9.9375 -11.625 C 9.882812 -12.039062 9.769531 -12.425781 9.59375 -12.78125 C 9.257812 -13.363281 8.929688 -13.707031 8.609375 -13.8125 C 8.285156 -13.914062 7.816406 -13.828125 7.203125 -13.546875 C 6.296875 -13.109375 5.523438 -12.554688 4.890625 -11.890625 C 4.265625 -11.222656 3.664062 -10.507812 3.09375 -9.75 C 2.476562 -8.914062 1.9375 -8.03125 1.46875 -7.09375 C 1 -6.15625 0.5625 -5.179688 0.15625 -4.171875 C 0.0507812 -3.878906 -0.0351562 -3.570312 -0.109375 -3.25 C -0.179688 -2.925781 -0.21875 -2.582031 -0.21875 -2.21875 C -0.175781 -1.851562 -0.09375 -1.617188 0.03125 -1.515625 C 0.15625 -1.410156 0.398438 -1.394531 0.765625 -1.46875 C 1.234375 -1.601562 1.691406 -1.742188 2.140625 -1.890625 C 2.585938 -2.035156 3.046875 -2.179688 3.515625 -2.328125 C 3.847656 -2.429688 4.164062 -2.53125 4.46875 -2.625 C 4.769531 -2.71875 5.085938 -2.816406 5.421875 -2.921875 C 5.597656 -2.960938 5.785156 -3 5.984375 -3.03125 C 6.179688 -3.070312 6.375 -3.09375 6.5625 -3.09375 C 7.820312 -3.226562 8.8125 -3.097656 9.53125 -2.703125 C 10.257812 -2.304688 10.910156 -1.53125 11.484375 -0.375 C 12.097656 -0.914062 12.691406 -1.4375 13.265625 -1.9375 C 13.847656 -2.445312 14.425781 -2.9375 15 -3.40625 C 15.539062 -3.875 16.097656 -4.328125 16.671875 -4.765625 C 17.253906 -5.203125 17.835938 -5.597656 18.421875 -5.953125 C 18.597656 -6.066406 18.765625 -6.164062 18.921875 -6.25 C 19.085938 -6.34375 19.242188 -6.425781 19.390625 -6.5 C 19.578125 -6.570312 19.757812 -6.597656 19.9375 -6.578125 C 20.113281 -6.566406 20.238281 -6.46875 20.3125 -6.28125 C 20.382812 -6.101562 20.359375 -5.96875 20.234375 -5.875 C 20.109375 -5.789062 19.988281 -5.710938 19.875 -5.640625 C 18.363281 -4.554688 16.929688 -3.390625 15.578125 -2.140625 C 14.222656 -0.890625 12.875 0.363281 11.53125 1.625 C 11.394531 1.800781 11.242188 1.988281 11.078125 2.1875 C 10.910156 2.382812 10.789062 2.613281 10.71875 2.875 C 10.507812 3.519531 10.203125 4.113281 9.796875 4.65625 C 9.398438 5.195312 8.988281 5.738281 8.5625 6.28125 C 8.445312 6.425781 8.316406 6.550781 8.171875 6.65625 C 8.035156 6.769531 7.875 6.84375 7.6875 6.875 C 7.4375 6.914062 7.1875 6.941406 6.9375 6.953125 C 6.6875 6.972656 6.46875 6.875 6.28125 6.65625 C 6.101562 6.476562 6.054688 6.28125 6.140625 6.0625 C 6.234375 5.851562 6.316406 5.65625 6.390625 5.46875 Z M 6.390625 5.46875 "/></g></g></g></g></g><g transform="matrix(1, 0, 0, 1, 353, 217)"><g clip-path="url(#e3d0d18aa2)"><g fill="#0b4f3b" fill-opacity="1"><g transform="translate(0.41618, 49.313399)"><g><path d="M 4.859375 -18.0625 C 4.597656 -18.5 4.25 -18.984375 3.8125 -19.515625 C 3.375 -20.054688 2.914062 -20.582031 2.4375 -21.09375 C 1.96875 -21.613281 1.550781 -22.066406 1.1875 -22.453125 L 1.1875 -22.84375 L 2.984375 -22.84375 C 3.492188 -22.5 4.023438 -22.085938 4.578125 -21.609375 C 5.140625 -21.140625 5.671875 -20.632812 6.171875 -20.09375 C 6.703125 -20.632812 7.242188 -21.140625 7.796875 -21.609375 C 8.359375 -22.085938 8.898438 -22.5 9.421875 -22.84375 L 11.265625 -22.84375 L 11.265625 -22.453125 C 10.890625 -22.066406 10.457031 -21.613281 9.96875 -21.09375 C 9.476562 -20.582031 9.007812 -20.054688 8.5625 -19.515625 C 8.125 -18.984375 7.785156 -18.5 7.546875 -18.0625 Z M 4.859375 -18.0625 "/></g></g></g></g></g><g transform="matrix(1, 0, 0, 1, 230, 69)"><g clip-path="url(#204166dc99)"><g fill="#f0c992" fill-opacity="1"><g transform="translate(1.025739, 93.80901)"><g><path d="M 65.828125 -37.25 C 67.222656 -37.550781 68.878906 -37.75 70.796875 -37.84375 C 72.710938 -37.9375 74.644531 -37.828125 76.59375 -37.515625 C 78.539062 -37.210938 80.242188 -36.570312 81.703125 -35.59375 C 83.171875 -34.625 84.117188 -33.226562 84.546875 -31.40625 C 84.847656 -30.125 84.707031 -28.90625 84.125 -27.75 C 83.550781 -26.59375 82.726562 -25.523438 81.65625 -24.546875 C 80.59375 -23.578125 79.46875 -22.695312 78.28125 -21.90625 C 77.09375 -21.113281 76.078125 -20.414062 75.234375 -19.8125 C 71.515625 -17.257812 67.660156 -14.820312 63.671875 -12.5 C 59.691406 -10.1875 55.722656 -7.875 51.765625 -5.5625 C 49.753906 -4.40625 47.726562 -3.234375 45.6875 -2.046875 C 43.65625 -0.867188 41.664062 0.328125 39.71875 1.546875 C 39.351562 1.796875 39.289062 2.070312 39.53125 2.375 C 40.445312 3.894531 41.46875 5.289062 42.59375 6.5625 C 43.71875 7.84375 44.945312 9.09375 46.28125 10.3125 C 46.53125 10.675781 46.710938 10.707031 46.828125 10.40625 C 47.503906 9.976562 48.675781 9.25 50.34375 8.21875 C 52.019531 7.1875 53.878906 5.984375 55.921875 4.609375 C 57.960938 3.242188 59.878906 1.84375 61.671875 0.40625 C 63.460938 -1.019531 64.875 -2.328125 65.90625 -3.515625 C 66.945312 -4.703125 67.253906 -5.628906 66.828125 -6.296875 C 67.128906 -6.421875 67.476562 -6.328125 67.875 -6.015625 C 68.269531 -5.710938 68.4375 -5.132812 68.375 -4.28125 C 68.320312 -3.4375 67.742188 -2.269531 66.640625 -0.78125 C 65.546875 0.707031 63.71875 2.578125 61.15625 4.828125 C 58.601562 7.085938 54.984375 9.769531 50.296875 12.875 C 50.117188 12.9375 50.03125 13.054688 50.03125 13.234375 C 50.03125 13.421875 50.09375 13.570312 50.21875 13.6875 C 50.695312 14.0625 51.179688 14.429688 51.671875 14.796875 C 52.160156 15.160156 52.675781 15.523438 53.21875 15.890625 C 53.769531 16.253906 54.316406 16.617188 54.859375 16.984375 C 55.410156 17.347656 55.960938 17.710938 56.515625 18.078125 C 56.816406 18.253906 57.117188 18.40625 57.421875 18.53125 C 57.609375 18.65625 57.988281 18.914062 58.5625 19.3125 C 59.144531 19.707031 59.375 20.085938 59.25 20.453125 C 59.125 20.816406 58.863281 20.953125 58.46875 20.859375 C 58.070312 20.765625 57.722656 20.660156 57.421875 20.546875 C 56.023438 19.691406 54.535156 18.757812 52.953125 17.75 C 51.367188 16.75 49.785156 15.640625 48.203125 14.421875 C 47.960938 14.304688 47.78125 14.304688 47.65625 14.421875 C 45.46875 15.640625 43.226562 16.8125 40.9375 17.9375 C 38.65625 19.0625 36.300781 20.019531 33.875 20.8125 C 32.226562 21.300781 30.503906 21.695312 28.703125 22 C 26.910156 22.300781 25.164062 22.148438 23.46875 21.546875 C 22.363281 21.179688 21.265625 20.539062 20.171875 19.625 C 19.078125 18.71875 18.46875 17.625 18.34375 16.34375 C 18.226562 15.363281 18.410156 14.429688 18.890625 13.546875 C 19.378906 12.671875 19.929688 11.898438 20.546875 11.234375 C 22.429688 9.035156 24.601562 7.050781 27.0625 5.28125 C 29.53125 3.519531 31.984375 1.878906 34.421875 0.359375 C 34.910156 0.0546875 35.03125 -0.304688 34.78125 -0.734375 C 33.5 -3.410156 32.8125 -6.175781 32.71875 -9.03125 C 32.632812 -11.894531 33.445312 -14.757812 35.15625 -17.625 C 36.726562 -20.300781 38.804688 -22.71875 41.390625 -24.875 C 43.984375 -27.039062 46.585938 -28.941406 49.203125 -30.578125 C 51.765625 -32.160156 54.441406 -33.53125 57.234375 -34.6875 C 60.035156 -35.84375 62.898438 -36.695312 65.828125 -37.25 Z M 44.1875 11.046875 C 41.570312 8.671875 39.320312 6.207031 37.4375 3.65625 C 37.1875 3.289062 36.941406 3.226562 36.703125 3.46875 C 35.359375 4.320312 34.03125 5.203125 32.71875 6.109375 C 31.414062 7.023438 30.15625 8 28.9375 9.03125 C 28.570312 9.28125 27.882812 9.84375 26.875 10.71875 C 25.875 11.601562 24.875 12.609375 23.875 13.734375 C 22.875 14.859375 22.1875 15.921875 21.8125 16.921875 C 21.445312 17.929688 21.722656 18.710938 22.640625 19.265625 C 23.191406 19.566406 23.96875 19.640625 24.96875 19.484375 C 25.96875 19.335938 26.773438 19.203125 27.390625 19.078125 C 28.054688 18.960938 28.722656 18.8125 29.390625 18.625 C 30.066406 18.4375 30.707031 18.222656 31.3125 17.984375 C 33.5 17.253906 35.660156 16.367188 37.796875 15.328125 C 39.929688 14.296875 42.03125 13.203125 44.09375 12.046875 C 44.28125 11.929688 44.375 11.765625 44.375 11.546875 C 44.375 11.335938 44.3125 11.171875 44.1875 11.046875 Z M 79.609375 -28.671875 C 80.160156 -29.335938 80.617188 -30.234375 80.984375 -31.359375 C 81.347656 -32.484375 81.132812 -33.410156 80.34375 -34.140625 C 79.613281 -34.867188 78.53125 -35.28125 77.09375 -35.375 C 75.664062 -35.46875 74.234375 -35.4375 72.796875 -35.28125 C 71.367188 -35.132812 70.203125 -34.96875 69.296875 -34.78125 C 66.429688 -34.289062 63.628906 -33.5 60.890625 -32.40625 C 58.148438 -31.3125 55.535156 -30.003906 53.046875 -28.484375 C 50.304688 -26.773438 47.566406 -24.78125 44.828125 -22.5 C 42.085938 -20.21875 39.925781 -17.648438 38.34375 -14.796875 C 37.1875 -12.722656 36.5625 -10.617188 36.46875 -8.484375 C 36.382812 -6.359375 36.675781 -4.289062 37.34375 -2.28125 C 37.40625 -2.101562 37.523438 -1.984375 37.703125 -1.921875 C 37.890625 -1.859375 38.070312 -1.890625 38.25 -2.015625 C 41.050781 -3.710938 43.484375 -5.171875 45.546875 -6.390625 C 47.617188 -7.609375 49.519531 -8.71875 51.25 -9.71875 C 52.988281 -10.726562 54.769531 -11.765625 56.59375 -12.828125 C 58.425781 -13.890625 60.46875 -15.09375 62.71875 -16.4375 C 64.601562 -17.59375 66.582031 -18.765625 68.65625 -19.953125 C 70.726562 -21.140625 72.738281 -22.445312 74.6875 -23.875 C 76.632812 -25.300781 78.273438 -26.898438 79.609375 -28.671875 Z M 79.609375 -28.671875 "/></g></g></g></g></g></svg>